<?xml version="1.0" encoding="utf-8"?>
<!-- Generator: Adobe Illustrator 23.0.0, SVG Export Plug-In . SVG Version: 6.00 Build 0)  -->
<svg version="1.1" id="图层_1" xmlns="http://www.w3.org/2000/svg" xmlns:xlink="http://www.w3.org/1999/xlink" x="0px" y="0px"
	 viewBox="0 0 141.73 141.73" style="enable-background:new 0 0 141.73 141.73;" xml:space="preserve">
<style type="text/css">
	.st0{fill:#8EA485;}
	.st1{fill:#B0BC7F;}
	.st2{fill:#EEB36D;}
	.st3{fill:#F48F63;}
	.st4{fill:#EC7464;}
</style>
<path class="st0" d="M28.42,31.81v78.11C19.55,99.34,14.2,85.72,14.2,70.86C14.2,56.01,19.55,42.39,28.42,31.81z"/>
<path class="st1" d="M35.2,70.86c0,14.13,7.38,26.57,18.49,33.65v23.35c-9.91-3.72-18.6-9.97-25.27-17.94V31.81
	c6.67-7.97,15.36-14.22,25.27-17.94v23.35C42.58,44.3,35.2,56.74,35.2,70.86z"/>
<path class="st2" d="M78.97,110.54v21.07c-1.29,0.09-2.59,0.13-3.9,0.13c-7.52,0-14.72-1.37-21.38-3.88v-23.35
	c6.18,3.95,13.52,6.23,21.38,6.23C76.38,110.74,77.68,110.68,78.97,110.54z"/>
<path class="st3" d="M104.25,98.03v26.26c-7.73,4.22-16.35,6.75-25.28,7.32v-21.07C88.62,109.6,97.62,105.17,104.25,98.03z"/>
<path class="st4" d="M120.84,111c-4.75,5.43-10.38,9.9-16.59,13.29V98.03c0.28-0.29,0.54-0.58,0.8-0.88
	c3.83-4.36,10.46-4.79,14.82-0.97S124.67,106.64,120.84,111z"/>
<path class="st2" d="M78.97,10.12v21.06c-1.29-0.13-2.59-0.19-3.9-0.19c-7.86,0-15.2,2.28-21.38,6.23V13.87
	c6.66-2.51,13.86-3.88,21.38-3.88C76.38,9.99,77.68,10.03,78.97,10.12z"/>
<path class="st3" d="M104.25,17.43v26.26c-6.59-7.1-15.56-11.56-25.28-12.51V10.12C87.95,10.69,96.55,13.22,104.25,17.43z"/>
<path class="st4" d="M122.84,51.72c-4.84,3.21-11.35,1.9-14.56-2.93c-1.21-1.82-2.56-3.53-4.03-5.1V17.43
	c8.54,4.66,15.95,11.36,21.52,19.74C128.98,42,127.66,48.51,122.84,51.72z"/>
</svg>
